<?xml version="1.0" encoding="utf-8" standalone="no"?>
<!DOCTYPE svg PUBLIC "-//W3C//DTD SVG 1.1//EN"
  "http://www.w3.org/Graphics/SVG/1.1/DTD/svg11.dtd">
<svg xmlns:xlink="http://www.w3.org/1999/xlink" width="516.6pt" height="225.072pt" viewBox="0 0 516.6 225.072" xmlns="http://www.w3.org/2000/svg" version="1.1">
 <metadata>
  <rdf:RDF xmlns:dc="http://purl.org/dc/elements/1.1/" xmlns:cc="http://creativecommons.org/ns#" xmlns:rdf="http://www.w3.org/1999/02/22-rdf-syntax-ns#">
   <cc:Work>
    <dc:type rdf:resource="http://purl.org/dc/dcmitype/StillImage"/>
    <dc:date>2026-06-05T13:42:42.751026</dc:date>
    <dc:format>image/svg+xml</dc:format>
    <dc:creator>
     <cc:Agent>
      <dc:title>Matplotlib v3.10.6, https://matplotlib.org/</dc:title>
     </cc:Agent>
    </dc:creator>
   </cc:Work>
  </rdf:RDF>
 </metadata>
 <defs>
  <style type="text/css">*{stroke-linejoin: round; stroke-linecap: butt}</style>
 </defs>
 <g id="figure_1">
  <g id="patch_1">
   <path d="M 0 225.072 
L 516.6 225.072 
L 516.6 -0 
L 0 -0 
z
" style="fill: #ffffff"/>
  </g>
  <g id="axes_1">
   <g id="patch_2">
    <path d="M 7.2 93.57552 
L 107.64 93.57552 
Q 117.684 93.57552 117.684 89.36208 
L 117.684 72.50832 
Q 117.684 68.29488 107.64 68.29488 
L 7.2 68.29488 
Q -2.844 68.29488 -2.844 72.50832 
L -2.844 89.36208 
Q -2.844 93.57552 7.2 93.57552 
z
" clip-path="url(#pe00f8b1f3e)" style="fill: #767676"/>
   </g>
   <g id="patch_3">
    <path d="M 132.75 93.57552 
L 233.19 93.57552 
Q 243.234 93.57552 243.234 89.36208 
L 243.234 72.50832 
Q 243.234 68.29488 233.19 68.29488 
L 132.75 68.29488 
Q 122.706 68.29488 122.706 72.50832 
L 122.706 89.36208 
Q 122.706 93.57552 132.75 93.57552 
z
" clip-path="url(#pe00f8b1f3e)" style="fill: #e8873d"/>
   </g>
   <g id="patch_4">
    <path d="M 258.3 93.57552 
L 358.74 93.57552 
Q 368.784 93.57552 368.784 89.36208 
L 368.784 72.50832 
Q 368.784 68.29488 358.74 68.29488 
L 258.3 68.29488 
Q 248.256 68.29488 248.256 72.50832 
L 248.256 89.36208 
Q 248.256 93.57552 258.3 93.57552 
z
" clip-path="url(#pe00f8b1f3e)" style="fill: #2e9e44"/>
   </g>
   <g id="patch_5">
    <path d="M 383.85 93.57552 
L 484.29 93.57552 
Q 494.334 93.57552 494.334 89.36208 
L 494.334 72.50832 
Q 494.334 68.29488 484.29 68.29488 
L 383.85 68.29488 
Q 373.806 68.29488 373.806 72.50832 
L 373.806 89.36208 
Q 373.806 93.57552 383.85 93.57552 
z
" clip-path="url(#pe00f8b1f3e)" style="fill: #b64342"/>
   </g>
   <g id="patch_6">
    <path d="M 2.178 198.91152 
L 112.662 198.91152 
Q 122.706 198.91152 122.706 194.69808 
L 122.706 139.92336 
Q 122.706 135.70992 112.662 135.70992 
L 2.178 135.70992 
Q -7.866 135.70992 -7.866 139.92336 
L -7.866 194.69808 
Q -7.866 198.91152 2.178 198.91152 
z
" clip-path="url(#pe00f8b1f3e)" style="fill: #ffffff; stroke: #767676; stroke-linejoin: miter"/>
   </g>
   <g id="patch_7">
    <path d="M 127.728 198.91152 
L 238.212 198.91152 
Q 248.256 198.91152 248.256 194.69808 
L 248.256 139.92336 
Q 248.256 135.70992 238.212 135.70992 
L 127.728 135.70992 
Q 117.684 135.70992 117.684 139.92336 
L 117.684 194.69808 
Q 117.684 198.91152 127.728 198.91152 
z
" clip-path="url(#pe00f8b1f3e)" style="fill: #ffffff; stroke: #e8873d; stroke-linejoin: miter"/>
   </g>
   <g id="patch_8">
    <path d="M 253.278 198.91152 
L 363.762 198.91152 
Q 373.806 198.91152 373.806 194.69808 
L 373.806 139.92336 
Q 373.806 135.70992 363.762 135.70992 
L 253.278 135.70992 
Q 243.234 135.70992 243.234 139.92336 
L 243.234 194.69808 
Q 243.234 198.91152 253.278 198.91152 
z
" clip-path="url(#pe00f8b1f3e)" style="fill: #ffffff; stroke: #2e9e44; stroke-linejoin: miter"/>
   </g>
   <g id="patch_9">
    <path d="M 378.828 198.91152 
L 489.312 198.91152 
Q 499.356 198.91152 499.356 194.69808 
L 499.356 139.92336 
Q 499.356 135.70992 489.312 135.70992 
L 378.828 135.70992 
Q 368.784 135.70992 368.784 139.92336 
L 368.784 194.69808 
Q 368.784 198.91152 378.828 198.91152 
z
" clip-path="url(#pe00f8b1f3e)" style="fill: #ffffff; stroke: #b64342; stroke-linejoin: miter"/>
   </g>
   <g id="patch_10">
    <path d="M 82.53 217.872 
L 434.07 217.872 
Q 439.092 217.872 439.092 215.76528 
L 439.092 203.12496 
Q 439.092 201.01824 434.07 201.01824 
L 82.53 201.01824 
Q 77.508 201.01824 77.508 203.12496 
L 77.508 215.76528 
Q 77.508 217.872 82.53 217.872 
z
" clip-path="url(#pe00f8b1f3e)" style="fill: #eeeeee; stroke: #767676; stroke-width: 0.5; stroke-linejoin: miter"/>
   </g>
   <g id="text_1">
    <text style="font-weight: 700; font-size: 11px; font-family: 'Arial', 'Helvetica', 'DejaVu Sans', sans-serif; text-anchor: middle; fill: #272727" x="258.3" y="21.527816" transform="rotate(-0 258.3 21.527816)">Edge Lifecycle: Self-Evolution State Machine</text>
   </g>
   <g id="patch_11">
    <path d="M 109.641566 76.72176 
Q 120.19579 76.72176 128.513947 76.72176 
" style="fill: none; stroke: #0f4d92; stroke-width: 2; stroke-linecap: round"/>
    <path d="M 125.313947 75.12176 
L 128.513947 76.72176 
L 125.313947 78.32176 
z
" style="fill: #0f4d92; stroke: #0f4d92; stroke-width: 2; stroke-linecap: round"/>
   </g>
   <g id="text_2">
    <text style="font-size: 6px; font-family: 'Arial', 'Helvetica', 'DejaVu Sans', sans-serif; fill: #0f4d92" transform="translate(104.356406 58.649535)">verifications</text>
    <text style="font-size: 6px; font-family: 'Arial', 'Helvetica', 'DejaVu Sans', sans-serif; fill: #0f4d92" transform="translate(103.874531 64.99566)">≥ min_count</text>
   </g>
   <g id="patch_12">
    <path d="M 235.191566 76.72176 
Q 245.74579 76.72176 254.063947 76.72176 
" style="fill: none; stroke: #0f4d92; stroke-width: 2; stroke-linecap: round"/>
    <path d="M 250.863947 75.12176 
L 254.063947 76.72176 
L 250.863947 78.32176 
z
" style="fill: #0f4d92; stroke: #0f4d92; stroke-width: 2; stroke-linecap: round"/>
   </g>
   <g id="text_3">
    <text style="font-size: 6px; font-family: 'Arial', 'Helvetica', 'DejaVu Sans', sans-serif; fill: #0f4d92" transform="translate(231.069844 58.649535)">dominance</text>
    <text style="font-size: 6px; font-family: 'Arial', 'Helvetica', 'DejaVu Sans', sans-serif; fill: #0f4d92" transform="translate(237.260625 64.99566)">≥ 80%</text>
   </g>
   <g id="patch_13">
    <path d="M 360.741566 76.72176 
Q 371.29579 76.72176 379.613947 76.72176 
" style="fill: none; stroke: #b64342; stroke-width: 2; stroke-linecap: round"/>
    <path d="M 376.413947 75.12176 
L 379.613947 76.72176 
L 376.413947 78.32176 
z
" style="fill: #b64342; stroke: #b64342; stroke-width: 2; stroke-linecap: round"/>
   </g>
   <g id="text_4">
    <text style="font-size: 6px; font-family: 'Arial', 'Helvetica', 'DejaVu Sans', sans-serif; fill: #b64342" transform="translate(356.619844 58.649535)">dominance</text>
    <text style="font-size: 6px; font-family: 'Arial', 'Helvetica', 'DejaVu Sans', sans-serif; fill: #b64342" transform="translate(362.705156 64.99566)">&lt; 40%</text>
   </g>
   <g id="patch_14">
    <path d="M 432.27974 96.898085 
Q 245.746465 4.518061 60.415471 96.301217 
" style="fill: none; stroke-dasharray: 4.44,1.92; stroke-dashoffset: 0; stroke: #9a4d8e; stroke-width: 1.2; stroke-linecap: round"/>
    <path d="M 63.993154 96.314869 
L 60.415471 96.301217 
L 62.573003 93.447262 
z
" style="fill: #9a4d8e; stroke-dasharray: 4.44,1.92; stroke-dashoffset: 0; stroke: #9a4d8e; stroke-width: 1.2; stroke-linecap: round"/>
   </g>
   <g id="text_5">
    <text style="font-style: italic; font-size: 6.5px; font-family: 'Arial', 'Helvetica', 'DejaVu Sans', sans-serif; text-anchor: middle; fill: #9a4d8e" x="248.256" y="118.85616" transform="rotate(-0 248.256 118.85616)">VLM re-explores → new observations restart cycle</text>
   </g>
   <g id="text_6">
    <text style="font-weight: 700; font-size: 7px; font-family: 'Arial', 'Helvetica', 'DejaVu Sans', sans-serif; text-anchor: middle; fill: #767676" x="57.42" y="148.35024" transform="rotate(-0 57.42 148.35024)">hypothesis</text>
   </g>
   <g id="text_7">
    <text style="font-size: 6px; font-family: 'Arial', 'Helvetica', 'DejaVu Sans', sans-serif; text-anchor: middle; fill: #272727" x="57.42" y="160.99056" transform="rotate(-0 57.42 160.99056)">1–2 observations</text>
   </g>
   <g id="text_8">
    <text style="font-size: 6px; font-family: 'Arial', 'Helvetica', 'DejaVu Sans', sans-serif; text-anchor: middle; fill: #272727" x="57.42" y="170.4708" transform="rotate(-0 57.42 170.4708)">Not visible to ActionAdvisor</text>
   </g>
   <g id="text_9">
    <text style="font-size: 6px; font-family: 'Arial', 'Helvetica', 'DejaVu Sans', sans-serif; text-anchor: middle; fill: #272727" x="57.42" y="179.95104" transform="rotate(-0 57.42 179.95104)">VLM explores independently</text>
   </g>
   <g id="text_10">
    <text style="font-weight: 700; font-size: 7px; font-family: 'Arial', 'Helvetica', 'DejaVu Sans', sans-serif; text-anchor: middle; fill: #e8873d" x="182.97" y="148.35024" transform="rotate(-0 182.97 148.35024)">candidate</text>
   </g>
   <g id="text_11">
    <text style="font-size: 6px; font-family: 'Arial', 'Helvetica', 'DejaVu Sans', sans-serif; text-anchor: middle; fill: #272727" x="182.97" y="160.99056" transform="rotate(-0 182.97 160.99056)">Unstable outcomes</text>
   </g>
   <g id="text_12">
    <text style="font-size: 6px; font-family: 'Arial', 'Helvetica', 'DejaVu Sans', sans-serif; text-anchor: middle; fill: #272727" x="182.97" y="170.4708" transform="rotate(-0 182.97 170.4708)">Low-confidence hint</text>
   </g>
   <g id="text_13">
    <text style="font-size: 6px; font-family: 'Arial', 'Helvetica', 'DejaVu Sans', sans-serif; text-anchor: middle; fill: #272727" x="182.97" y="179.95104" transform="rotate(-0 182.97 179.95104)">Shannon entropy &gt; threshold</text>
   </g>
   <g id="text_14">
    <text style="font-weight: 700; font-size: 7px; font-family: 'Arial', 'Helvetica', 'DejaVu Sans', sans-serif; text-anchor: middle; fill: #2e9e44" x="308.52" y="148.35024" transform="rotate(-0 308.52 148.35024)">promoted</text>
   </g>
   <g id="text_15">
    <text style="font-size: 6px; font-family: 'Arial', 'Helvetica', 'DejaVu Sans', sans-serif; text-anchor: middle; fill: #272727" x="308.52" y="160.99056" transform="rotate(-0 308.52 160.99056)">Verified &amp; reliable</text>
   </g>
   <g id="text_16">
    <text style="font-size: 6px; font-family: 'Arial', 'Helvetica', 'DejaVu Sans', sans-serif; text-anchor: middle; fill: #272727" x="308.52" y="170.4708" transform="rotate(-0 308.52 170.4708)">Grounded → Fast Path</text>
   </g>
   <g id="text_17">
    <text style="font-size: 6px; font-family: 'Arial', 'Helvetica', 'DejaVu Sans', sans-serif; text-anchor: middle; fill: #272727" x="308.52" y="179.95104" transform="rotate(-0 308.52 179.95104)">Ungrounded → VLM hint</text>
   </g>
   <g id="text_18">
    <text style="font-size: 6px; font-family: 'Arial', 'Helvetica', 'DejaVu Sans', sans-serif; text-anchor: middle; fill: #272727" x="308.52" y="189.43128" transform="rotate(-0 308.52 189.43128)">Persisted to Neo4j</text>
   </g>
   <g id="text_19">
    <text style="font-weight: 700; font-size: 7px; font-family: 'Arial', 'Helvetica', 'DejaVu Sans', sans-serif; text-anchor: middle; fill: #b64342" x="434.07" y="148.35024" transform="rotate(-0 434.07 148.35024)">demoted</text>
   </g>
   <g id="text_20">
    <text style="font-size: 6px; font-family: 'Arial', 'Helvetica', 'DejaVu Sans', sans-serif; text-anchor: middle; fill: #272727" x="434.07" y="160.99056" transform="rotate(-0 434.07 160.99056)">UI layout changed</text>
   </g>
   <g id="text_21">
    <text style="font-size: 6px; font-family: 'Arial', 'Helvetica', 'DejaVu Sans', sans-serif; text-anchor: middle; fill: #272727" x="434.07" y="170.4708" transform="rotate(-0 434.07 170.4708)">Removed from hints</text>
   </g>
   <g id="text_22">
    <text style="font-size: 6px; font-family: 'Arial', 'Helvetica', 'DejaVu Sans', sans-serif; text-anchor: middle; fill: #272727" x="434.07" y="179.95104" transform="rotate(-0 434.07 179.95104)">VLM re-explores</text>
   </g>
   <g id="text_23">
    <text style="font-size: 6px; font-family: 'DejaVu Sans Mono', 'Bitstream Vera Sans Mono', 'Computer Modern Typewriter', 'Andale Mono', 'Nimbus Mono L', 'Courier New', 'Courier', 'Fixed', 'Terminal', monospace; text-anchor: middle; fill: #272727" x="258.3" y="209.44512" transform="rotate(-0 258.3 209.44512)">SAVA Config:  min_verification = 3  |  dominance_threshold = 0.80  |  entropy_vlm_threshold = 0.50  |  demotion_threshold = 0.40</text>
   </g>
   <g id="text_24">
    <text style="font-weight: 700; font-size: 9px; font-family: 'Arial', 'Helvetica', 'DejaVu Sans', sans-serif; text-anchor: middle; fill: #ffffff" x="57.42" y="83.209106" transform="rotate(-0 57.42 83.209106)">hypothesis</text>
   </g>
   <g id="text_25">
    <text style="font-weight: 700; font-size: 9px; font-family: 'Arial', 'Helvetica', 'DejaVu Sans', sans-serif; text-anchor: middle; fill: #ffffff" x="182.97" y="83.268169" transform="rotate(-0 182.97 83.268169)">candidate</text>
   </g>
   <g id="text_26">
    <text style="font-weight: 700; font-size: 9px; font-family: 'Arial', 'Helvetica', 'DejaVu Sans', sans-serif; text-anchor: middle; fill: #ffffff" x="308.52" y="83.268169" transform="rotate(-0 308.52 83.268169)">promoted</text>
   </g>
   <g id="text_27">
    <text style="font-weight: 700; font-size: 9px; font-family: 'Arial', 'Helvetica', 'DejaVu Sans', sans-serif; text-anchor: middle; fill: #ffffff" x="434.07" y="83.268169" transform="rotate(-0 434.07 83.268169)">demoted</text>
   </g>
  </g>
 </g>
 <defs>
  <clipPath id="pe00f8b1f3e">
   <rect x="7.2" y="7.2" width="502.2" height="210.672"/>
  </clipPath>
 </defs>
</svg>
